<?xml version="1.0" encoding="utf-8"?>
<!-- Generator: Adobe Illustrator 20.1.0, SVG Export Plug-In . SVG Version: 6.00 Build 0)  -->
<svg version="1.1" id="Layer_1" xmlns="http://www.w3.org/2000/svg" xmlns:xlink="http://www.w3.org/1999/xlink" x="0px" y="0px"
	 viewBox="0 0 50 50" style="enable-background:new 0 0 50 50;" xml:space="preserve">
<style type="text/css">
	.st0{fill:#FFFFFF;}
	.st1{fill:#BCBCBC;}
	.st2{fill:none;stroke:#FFFFFF;stroke-width:0.5;stroke-miterlimit:10;}
</style>
<rect class="st0" width="49.9" height="49.8"/>
<g>
	<circle class="st1" cx="24.9" cy="24.9" r="23.3"/>
</g>
<g>
	<path class="st2" d="M30.4,21.3H10.3c-0.4,0-0.7,0.3-0.7,0.7v11.7c0,0.4,0.3,0.7,0.7,0.7H14v3.2l3.1-3.2h13.3
		c0.4,0,0.7-0.3,0.7-0.7V21.9C31,21.6,30.7,21.3,30.4,21.3z"/>
	<path class="st2" d="M39.6,14.9H19.5c-0.4,0-0.7,0.3-0.7,0.7v4.2h13c0.4,0,0.7,0.3,0.7,0.7V28h1.6l2.6,2.9V28h2.9
		c0.4,0,0.7-0.3,0.7-0.7V15.6C40.2,15.2,40,14.9,39.6,14.9z"/>
</g>
</svg>
