<?xml version="1.0" encoding="utf-8"?>
<!-- Generator: Adobe Illustrator 20.1.0, SVG Export Plug-In . SVG Version: 6.00 Build 0)  -->
<svg version="1.1" id="Layer_1" xmlns="http://www.w3.org/2000/svg" xmlns:xlink="http://www.w3.org/1999/xlink" x="0px" y="0px"
	 viewBox="0 0 32.6 34.5" style="enable-background:new 0 0 32.6 34.5;" xml:space="preserve">
<style type="text/css">
	.st0{fill:none;stroke:#FFFFFF;stroke-width:0.5;stroke-miterlimit:10;}
	.st1{fill:none;stroke:#FCFCFC;stroke-width:0.5;stroke-miterlimit:10;}
</style>
<g>
	<path class="st0" d="M20,13.9H6.3c-0.3,0-0.5,0.2-0.5,0.5v8c0,0.3,0.2,0.5,0.5,0.5h2.5V25l2.1-2.2H20c0.3,0,0.5-0.2,0.5-0.5v-8
		C20.4,14.1,20.2,13.9,20,13.9z"/>
	<path class="st0" d="M26.3,9.6H12.6c-0.3,0-0.5,0.2-0.5,0.5v2.9H21c0.3,0,0.5,0.2,0.5,0.5v5.1h1.1l1.8,2v-2h2
		c0.3,0,0.5-0.2,0.5-0.5v-8C26.7,9.8,26.5,9.6,26.3,9.6z"/>
</g>
<g>
	<circle class="st1" cx="16.2" cy="16.4" r="15.8"/>
</g>
</svg>
