<?xml version="1.0" encoding="utf-8"?>
<!-- Generator: Adobe Illustrator 20.1.0, SVG Export Plug-In . SVG Version: 6.00 Build 0)  -->
<svg version="1.1" id="Layer_1" xmlns="http://www.w3.org/2000/svg" xmlns:xlink="http://www.w3.org/1999/xlink" x="0px" y="0px"
	 viewBox="0 0 50 50" style="enable-background:new 0 0 50 50;" xml:space="preserve">
<style type="text/css">
	.st0{fill:#FFFFFF;}
	.st1{fill:#BCBCBC;}
	.st2{fill:none;stroke:#FFFFFF;stroke-width:0.5;stroke-miterlimit:10;}
</style>
<rect class="st0" width="49.9" height="49.8"/>
<g>
	<circle class="st1" cx="24.9" cy="24.9" r="23.3"/>
</g>
<g>
	<rect x="20.6" y="6.7" class="st2" width="1.2" height="1.2"/>
	<rect x="23.1" y="6.7" class="st2" width="1.2" height="1.2"/>
	<rect x="25.6" y="6.7" class="st2" width="1.2" height="1.2"/>
	<rect x="28.2" y="6.7" class="st2" width="1.2" height="1.2"/>
	<polygon class="st2" points="20.6,18 21.9,18 21.9,14.2 20.6,14.2 20.6,9.2 18.7,9.2 18.7,6.7 17.5,6.7 17.5,18 18.7,18 	"/>
	<rect x="23.1" y="41.8" class="st2" width="3.7" height="8.8"/>
	<path class="st2" d="M21.9,12.9h1.3v8.2v0.4c0.6,0.2,1.3,0.3,2,0.3c0.6,0,1.2-0.1,1.8-0.2v-0.5v-8.2h1.3V9.2H22L21.9,12.9
		L21.9,12.9z"/>
	<polygon class="st2" points="29.4,14.2 28.2,14.2 28.2,18 29.4,18 31.3,18 32.5,18 32.5,6.7 31.3,6.7 31.3,9.2 29.4,9.2 	"/>
	<path class="st2" d="M30.3,19.8c-0.4,1.9-2.5,3.3-5.2,3.3c-2.6,0-4.8-1.4-5.2-3.3h-3.7v10l3.8,9.7h6.5H30l3.8-9.7v-10H30.3z"/>
</g>
</svg>
