<?xml version="1.0" encoding="utf-8"?>
<!-- Generator: Adobe Illustrator 20.1.0, SVG Export Plug-In . SVG Version: 6.00 Build 0)  -->
<svg version="1.1" id="Layer_1" xmlns="http://www.w3.org/2000/svg" xmlns:xlink="http://www.w3.org/1999/xlink" x="0px" y="0px"
	 viewBox="0 0 32.6 34.5" style="enable-background:new 0 0 32.6 34.5;" xml:space="preserve">
<style type="text/css">
	.st0{fill:none;stroke:#FFFFFF;stroke-width:0.5;stroke-miterlimit:10;}
</style>
<g>
	<g>
		<circle class="st0" cx="16.2" cy="16.4" r="15.8"/>
	</g>
	<g>
		<rect x="13.3" y="4.1" class="st0" width="0.8" height="0.8"/>
		<rect x="15" y="4.1" class="st0" width="0.8" height="0.8"/>
		<rect x="16.7" y="4.1" class="st0" width="0.8" height="0.8"/>
		<rect x="18.4" y="4.1" class="st0" width="0.8" height="0.8"/>
		<polygon class="st0" points="13.3,11.7 14.2,11.7 14.2,9.2 13.3,9.2 13.3,5.8 12,5.8 12,4.1 11.2,4.1 11.2,11.7 12,11.7 		"/>
		<rect x="15" y="27.9" class="st0" width="2.5" height="4.1"/>
		<path class="st0" d="M14.2,8.3H15v5.6v0.3c0.4,0.1,0.9,0.2,1.4,0.2c0.4,0,0.8-0.1,1.2-0.1V14V8.3h0.9V5.8h-4.3V8.3L14.2,8.3z"/>
		<polygon class="st0" points="19.3,9.2 18.4,9.2 18.4,11.7 19.3,11.7 20.5,11.7 21.4,11.7 21.4,4.1 20.5,4.1 20.5,5.8 19.3,5.8 		
			"/>
		<path class="st0" d="M19.9,13c-0.3,1.3-1.7,2.2-3.5,2.2s-3.3-1-3.5-2.2h-2.5v6.8l2.6,6.6h4.4h2.4l2.6-6.6V13H19.9z"/>
	</g>
</g>
</svg>
