<?xml version="1.0" encoding="utf-8"?>
<!-- Generator: Adobe Illustrator 20.1.0, SVG Export Plug-In . SVG Version: 6.00 Build 0)  -->
<svg version="1.1" id="Layer_1" xmlns="http://www.w3.org/2000/svg" xmlns:xlink="http://www.w3.org/1999/xlink" x="0px" y="0px"
	 viewBox="0 0 20.1 20.1" style="enable-background:new 0 0 20.1 20.1;" xml:space="preserve">
<style type="text/css">
	.st0{fill-rule:evenodd;clip-rule:evenodd;}
	.st1{fill-rule:evenodd;clip-rule:evenodd;fill:#80C342;}
	.st2{fill:none;stroke:#80C342;stroke-width:0.3;stroke-linecap:round;stroke-linejoin:round;}
	.st3{clip-path:url(#SVGID_2_);}
	.st4{clip-path:url(#SVGID_4_);fill:url(#SVGID_5_);}
	.st5{clip-path:url(#SVGID_7_);}
	.st6{clip-path:url(#SVGID_9_);fill:url(#SVGID_10_);}
	.st7{fill-rule:evenodd;clip-rule:evenodd;fill:#FFFFFF;}
</style>
<g>
	<circle class="st0" cx="10" cy="10" r="10"/>
	<g>
		<g>
			<g>
				<g>
					<g>
						<path class="st1" d="M15.9,8.1c0.4-0.2,0.8-0.3,1.1-0.5c0.3-0.2,0.5-0.4,0.7-0.5c0.9-1,0.6-1.9-0.7-2.9
							c-0.3-0.2-0.7-0.4-1.1-0.6c-0.5-0.2-1-0.4-1.5-0.6l-0.8-0.2l0.6,0.4c0.3,0.2,0.6,0.4,0.8,0.6C15.7,4.5,15.8,5.3,15,6
							c-0.2,0.2-0.4,0.4-0.8,0.5C13.9,6.7,13.5,6.9,13,7c-0.5,0.2-1.1,0.3-1.7,0.4C9.9,7.7,8.2,7.7,6.6,7.6C5.7,7.6,4.9,7.5,4.1,7.3
							c-1.1-0.2-2-0.5-3-0.7L1.7,7c1.1,0.7,2.3,1,3.8,1.3c1.5,0.3,3.2,0.4,5,0.5c0.3,1,0.3,2.2,0,3.4c-0.2,0.6-0.4,1.2-0.9,1.9
							c-0.5,0.7-1.2,1.7-1.7,2.3C7.4,17,7,17.3,6.6,17.6L6,18l0.8-0.2c1.5-0.5,2.8-1.3,4.2-2.5c1.3-1.2,2.5-2.6,3-4
							c0.3-0.6,0.5-1.2,0.5-1.7c0.1-0.5,0-0.8-0.1-1.1C15,8.4,15.5,8.2,15.9,8.1"/>
						<path class="st2" d="M15.9,8.1c0.4-0.2,0.8-0.3,1.1-0.5c0.3-0.2,0.5-0.4,0.7-0.5c0.9-1,0.6-1.9-0.7-2.9
							c-0.3-0.2-0.7-0.4-1.1-0.6c-0.5-0.2-1-0.4-1.5-0.6l-0.8-0.2l0.6,0.4c0.3,0.2,0.6,0.4,0.8,0.6C15.7,4.5,15.8,5.3,15,6
							c-0.2,0.2-0.4,0.4-0.8,0.5C13.9,6.7,13.5,6.9,13,7c-0.5,0.2-1.1,0.3-1.7,0.4C9.9,7.7,8.2,7.7,6.6,7.6C5.7,7.6,4.9,7.5,4.1,7.3
							c-1.1-0.2-2-0.5-3-0.7L1.7,7c1.1,0.7,2.3,1,3.8,1.3c1.5,0.3,3.2,0.4,5,0.5c0.3,1,0.3,2.2,0,3.4c-0.2,0.6-0.4,1.2-0.9,1.9
							c-0.5,0.7-1.2,1.7-1.7,2.3C7.4,17,7,17.3,6.6,17.6L6,18l0.8-0.2c1.5-0.5,2.8-1.3,4.2-2.5c1.3-1.2,2.5-2.6,3-4
							c0.3-0.6,0.5-1.2,0.5-1.7c0.1-0.5,0-0.8-0.1-1.1C15,8.4,15.5,8.2,15.9,8.1z"/>
						<g>
							<defs>
								<path id="SVGID_1_" d="M15.9,8.1c0.4-0.2,0.8-0.3,1.1-0.5c0.3-0.2,0.5-0.4,0.7-0.5c0.9-1,0.6-1.9-0.7-2.9
									c-0.3-0.2-0.7-0.4-1.1-0.6c-0.5-0.2-1-0.4-1.5-0.6l-0.8-0.2l0.6,0.4c0.3,0.2,0.6,0.4,0.8,0.6c0.8,0.7,0.9,1.5,0.1,2.2
									c-0.2,0.2-0.4,0.4-0.8,0.5C14,6.7,13.6,6.9,13.1,7c-0.5,0.2-1.1,0.3-1.7,0.4C9.9,7.7,8.2,7.7,6.6,7.6
									C5.8,7.6,4.9,7.5,4.1,7.3c-1.1-0.2-2-0.5-3-0.7L1.7,7c1.1,0.7,2.3,1,3.8,1.3c1.5,0.3,3.2,0.4,5,0.5c0.3,1,0.3,2.2,0,3.4
									c-0.2,0.6-0.4,1.2-0.9,1.9c-0.5,0.7-1.2,1.7-1.7,2.3C7.4,17,7,17.3,6.6,17.6L6.1,18l0.8-0.2c1.5-0.5,2.8-1.3,4.2-2.5
									c1.3-1.2,2.5-2.6,3-4c0.3-0.6,0.5-1.2,0.5-1.7c0.1-0.5,0-0.8-0.1-1.1C15,8.4,15.5,8.2,15.9,8.1"/>
							</defs>
							<clipPath id="SVGID_2_">
								<use xlink:href="#SVGID_1_"  style="overflow:visible;"/>
							</clipPath>
							<g class="st3">
								<defs>
									
										<rect id="SVGID_3_" x="0.8" y="0.4" transform="matrix(0.1859 -0.9826 0.9826 0.1859 -2.1743 18.1594)" width="18.2" height="20"/>
								</defs>
								<clipPath id="SVGID_4_">
									<use xlink:href="#SVGID_3_"  style="overflow:visible;"/>
								</clipPath>
								
									<linearGradient id="SVGID_5_" gradientUnits="userSpaceOnUse" x1="-267.8268" y1="433.6966" x2="-267.4745" y2="433.6966" gradientTransform="matrix(-3.9556 20.9065 20.9065 3.9556 -10116.3525 3892.8955)">
									<stop  offset="0" style="stop-color:#48B749"/>
									<stop  offset="1" style="stop-color:#EEF7D3"/>
								</linearGradient>
								<polygon class="st4" points="25.3,0.4 20.6,25.4 -5.6,20.4 -0.8,-4.6 								"/>
							</g>
						</g>
						<g>
							<defs>
								<path id="SVGID_6_" d="M15.7,8c0.4-0.1,0.8-0.3,1.1-0.5c0.3-0.2,0.5-0.3,0.7-0.5c0.9-0.9,0.6-1.8-0.7-2.7
									c-0.3-0.2-0.7-0.4-1.1-0.6c-0.4-0.2-1-0.4-1.5-0.6c0.3,0.2,0.6,0.4,0.9,0.6c0.8,0.8,0.9,1.6,0.1,2.4
									c-0.2,0.2-0.5,0.4-0.8,0.5c-0.3,0.2-0.8,0.4-1.3,0.5c-0.5,0.2-1.1,0.3-1.8,0.4C10,7.8,8.3,7.9,6.6,7.8
									C5.8,7.7,4.9,7.6,4.1,7.5C3.3,7.3,2.6,7.2,1.8,6.9C3,7.5,4.2,8,5.6,8.3c1.5,0.3,3.2,0.4,5,0.5c0.4,1,0.4,2.3,0,3.5
									c-0.2,0.6-0.4,1.2-0.9,1.9c-0.5,0.8-1.2,1.7-1.8,2.3c-0.5,0.6-0.9,0.9-1.3,1.1c0.8-0.2,1.5-0.6,2.2-1c0.7-0.5,1.4-1,2.1-1.6
									c0.7-0.6,1.3-1.3,1.8-2c0.5-0.7,0.9-1.4,1.1-2c0.3-0.6,0.4-1.2,0.5-1.6c0.1-0.4,0-0.8-0.1-1C14.8,8.3,15.3,8.1,15.7,8"/>
							</defs>
							<clipPath id="SVGID_7_">
								<use xlink:href="#SVGID_6_"  style="overflow:visible;"/>
							</clipPath>
							<g class="st5">
								<defs>
									<rect id="SVGID_8_" x="1.8" y="3.1" width="16.6" height="14.5"/>
								</defs>
								<clipPath id="SVGID_9_">
									<use xlink:href="#SVGID_8_"  style="overflow:visible;"/>
								</clipPath>
								
									<linearGradient id="SVGID_10_" gradientUnits="userSpaceOnUse" x1="-294.0984" y1="430.4724" x2="-293.7461" y2="430.4724" gradientTransform="matrix(0 -45.4762 -45.4762 0 19586.3965 -13358.8975)">
									<stop  offset="0" style="stop-color:#80C342"/>
									<stop  offset="0.1107" style="stop-color:#81C343"/>
									<stop  offset="0.1914" style="stop-color:#86C548"/>
									<stop  offset="0.2627" style="stop-color:#8EC852"/>
									<stop  offset="0.3285" style="stop-color:#99CC63"/>
									<stop  offset="0.3905" style="stop-color:#A7D27A"/>
									<stop  offset="0.4488" style="stop-color:#B8DA92"/>
									<stop  offset="0.4888" style="stop-color:#C6E0A7"/>
									<stop  offset="1" style="stop-color:#E5F1D8"/>
								</linearGradient>
								<rect x="1.8" y="3.1" class="st6" width="16.6" height="14.5"/>
							</g>
						</g>
						<path class="st7" d="M9.9,4.4c1.8,0,3.2,0.6,3.2,1.2s-1.4,1.2-3.2,1.2c-1.8,0-3.2-0.6-3.2-1.2S8.1,4.4,9.9,4.4"/>
					</g>
				</g>
			</g>
		</g>
	</g>
</g>
</svg>
