<?xml version="1.0" encoding="utf-8"?>
<!-- Generator: Adobe Illustrator 20.1.0, SVG Export Plug-In . SVG Version: 6.00 Build 0)  -->
<svg version="1.1" id="Layer_1" xmlns="http://www.w3.org/2000/svg" xmlns:xlink="http://www.w3.org/1999/xlink" x="0px" y="0px"
	 viewBox="0 0 32.6 34.5" style="enable-background:new 0 0 32.6 34.5;" xml:space="preserve">
<style type="text/css">
	.st0{fill:none;stroke:#FFFFFF;stroke-width:0.5;stroke-miterlimit:10;}
	.st1{fill:none;stroke:#FCFCFC;stroke-width:0.5;stroke-miterlimit:10;}
</style>
<g>
	<circle class="st0" cx="16.2" cy="16.4" r="15.8"/>
</g>
<path class="st1" d="M16.2,0.6C7.5,0.6,0.4,7.7,0.4,16.4c0,0.7,0.1,1.3,0.1,2h4.8c0.5,0,0.9,0.3,0.9,0.8v3.9l3-0.6
	c0-0.4,0.1-0.6,0.2-0.9c0.5-1,1.5-1.5,2.5-1.3l3.3-5l-7.5-3.7c-0.2,0-0.3-0.3-0.2-0.5l0.3-0.6L22.9,18l4.2-1.4L25.3,20
	c0,0.2-0.3,0.3-0.5,0.2l-7.9-3.9l-3.5,5.2c0.4,0.7,0.4,1.5,0.1,2.2c-0.5,1.2-1.9,1.6-3.1,1.1c-0.2,0-0.4-0.2-0.5-0.3l-3.7,0.7v3.4
	c2.7,2.2,6.2,3.6,10,3.6c8.7,0,15.8-7.1,15.8-15.8C32,7.7,24.9,0.6,16.2,0.6z M22.3,16.9L8.4,10c-0.2,0-0.3-0.3-0.2-0.5l2.5-4.8
	c0-0.2,0.3-0.3,0.5-0.2l18.7,9.3c0.2,0,0.3,0.3,0.2,0.5L30,14.7L22.3,16.9z M26.6,19l1.6-3.3l2.1,1L28.6,20L26.6,19z"/>
</svg>
