<?xml version="1.0" encoding="utf-8"?>
<!-- Generator: Adobe Illustrator 20.1.0, SVG Export Plug-In . SVG Version: 6.00 Build 0)  -->
<svg version="1.1" id="Layer_1" xmlns="http://www.w3.org/2000/svg" xmlns:xlink="http://www.w3.org/1999/xlink" x="0px" y="0px"
	 viewBox="0 0 50 50" style="enable-background:new 0 0 50 50;" xml:space="preserve">
<style type="text/css">
	.st0{fill:#FFFFFF;}
	.st1{fill:#EAEAEA;}
	.st2{fill:none;stroke:#FFFFFF;stroke-width:0.5;stroke-miterlimit:10;}
</style>
<rect class="st0" width="49.9" height="49.8"/>
<g>
	<circle class="st1" cx="24.9" cy="24.9" r="23.3"/>
</g>
<g>
	<path class="st2" d="M44.8,21.7c0.2-0.3,0-0.7-0.3-0.8L16.9,7.3c-0.3-0.2-0.7,0-0.8,0.3l-3.5,7.1c-0.2,0.3,0,0.7,0.3,0.8l20.4,10.1
		l11.3-3.3L44.8,21.7z"/>
	<rect x="39.6" y="25.3" transform="matrix(0.4426 -0.8967 0.8967 0.4426 -0.6129 53.0807)" class="st2" width="5.5" height="3.4"/>
	<path class="st2" d="M34.2,27.2l-22.3-11l-0.5,0.9c-0.2,0.3,0,0.7,0.3,0.8l11.1,5.5l-4.9,7.3c-1.5-0.3-3,0.5-3.7,1.9
		c-0.2,0.4-0.3,0.8-0.3,1.3l-4.4,0.9V29c0-0.7-0.6-1.2-1.3-1.2H-7.4c7.5,0,8.8,0.6,8.8,1.3l0.1,15.2c0,0.7,0.6,1.2,1.3,1.2h5.6
		c0.7,0,1.2-0.6,1.2-1.3v-6.4l5.5-1.1c0.2,0.2,0.5,0.4,0.8,0.5c1.7,0.8,3.8,0.1,4.6-1.6c0.5-1,0.4-2.2-0.1-3.2l5.2-7.7l11.6,5.7
		c0.3,0.2,0.7,0,0.8-0.3l2.7-5L34.2,27.2z"/>
</g>
</svg>
