<?xml version="1.0" encoding="utf-8"?>
<!-- Generator: Adobe Illustrator 20.1.0, SVG Export Plug-In . SVG Version: 6.00 Build 0)  -->
<svg version="1.1" id="Layer_1" xmlns="http://www.w3.org/2000/svg" xmlns:xlink="http://www.w3.org/1999/xlink" x="0px" y="0px"
	 viewBox="0 0 50 50" style="enable-background:new 0 0 50 50;" xml:space="preserve">
<style type="text/css">
	.st0{fill:#FFFFFF;}
	.st1{fill:#EAEAEA;}
	.st2{fill:#EAEAEA;stroke:#FFFFFF;stroke-width:0.5;stroke-miterlimit:10;}
</style>
<rect class="st0" width="49.9" height="49.8"/>
<g>
	<circle class="st1" cx="24.9" cy="25" r="23.3"/>
</g>
<g>
	<path class="st2" d="M9.4,26.2l6.1,5.2c2.8-3.3,2.4-8.3-0.9-11.2L9.4,26.2z"/>
	<path class="st2" d="M16.4,18.2c4.5,3.9,5,10.6,1.1,15.1l2.3,2c4.9-5.8,4.2-14.4-1.5-19.3L16.4,18.2z"/>
	<path class="st2" d="M20.5,13.4c3.3,2.8,5.5,7,5.9,11.6c0.3,4.7-1.2,9-4,12.3l1.9,1.6c3.2-3.8,5-8.8,4.6-14.1
		c-0.4-5.4-2.9-10.1-6.7-13.3L20.5,13.4z"/>
	<path class="st2" d="M24.4,8.9C34,17.2,35,31.6,26.8,41.2l2.5,2.2c9.4-11,8.2-27.5-2.8-37L24.4,8.9z"/>
</g>
</svg>
